<?xml version="1.0" encoding="UTF-8"?>
<svg width="24px" height="22px" viewBox="0 0 24 22" version="1.1" xmlns="http://www.w3.org/2000/svg" xmlns:xlink="http://www.w3.org/1999/xlink">
    <g id="Page-1" stroke="none" stroke-width="1" fill="none" fill-rule="evenodd">
        <g id="warning">
            <polygon id="Path" fill="#FFFFFF" points="11.9939327 2.11371347 22.1359603 21.156511 1.60236169 21.156511"></polygon>
            <path d="M12,0 L0,22 L24,22 L12,0 Z M11,9 L13,9 L13,15 L11,15 L11,9 Z M12,18.75 C11.311,18.75 10.75,18.19 10.75,17.5 C10.75,16.81 11.311,16.25 12,16.25 C12.689,16.25 13.25,16.81 13.25,17.5 C13.25,18.19 12.689,18.75 12,18.75 Z M12,2 L22,21 L2,21 L12,2 Z" id="Shape" fill="#000000" fill-rule="nonzero"></path>
        </g>
    </g>
</svg>